<?xml version="1.0" standalone="no"?>
<!DOCTYPE svg PUBLIC "-//W3C//DTD SVG 20010904//EN"
 "http://www.w3.org/TR/2001/REC-SVG-20010904/DTD/svg10.dtd">
<svg version="1.0" xmlns="http://www.w3.org/2000/svg"
 width="453.000000pt" height="306.000000pt" viewBox="0 0 453.000000 306.000000"
 preserveAspectRatio="xMidYMid meet">

<g transform="translate(0.000000,306.000000) scale(0.100000,-0.100000)"
fill="#000000" stroke="none">
<path d="M0 2205 l0 -855 628 1 c543 1 756 7 717 20 -5 2 -46 3 -89 4 -55 0
-80 4 -83 13 -4 10 9 11 64 5 105 -12 456 -9 573 5 695 86 1364 360 1496 614
11 21 19 28 22 19 2 -7 -2 -18 -9 -23 -11 -7 -11 -11 -1 -15 6 -2 12 -13 12
-24 0 -10 5 -19 10 -19 6 0 10 -12 10 -26 0 -14 -4 -23 -10 -19 -5 3 -10 15
-10 26 0 10 -4 19 -8 19 -4 0 -40 -31 -79 -69 -92 -91 -191 -155 -391 -253
l-163 -80 33 -17 c21 -10 31 -22 28 -31 -2 -8 -4 -41 -5 -73 l0 -58 -70 -30
c-218 -94 -612 -200 -885 -239 -111 -15 -122 -19 -90 -32 14 -6 111 -13 215
-15 257 -7 462 18 759 91 56 14 58 14 63 -5 3 -10 8 -19 12 -19 9 0 4 -182 -6
-190 -19 -17 -266 -83 -431 -116 -13 -3 -22 -10 -19 -17 5 -17 149 -20 277 -6
178 19 218 21 194 8 -18 -9 -20 -18 -17 -67 4 -70 -3 -102 -22 -102 -8 0 -15
-4 -15 -10 0 -14 3 -13 58 11 159 71 285 166 380 287 19 23 38 42 43 42 19 0
7 -21 -31 -56 -22 -20 -40 -42 -40 -48 0 -14 -82 -96 -96 -96 -6 0 -23 -14
-39 -30 -16 -17 -35 -30 -42 -30 -7 0 -18 -9 -25 -20 -7 -11 -21 -20 -30 -20
-10 0 -18 -5 -18 -11 0 -6 -7 -8 -15 -5 -9 3 -18 -1 -22 -10 -3 -8 -12 -13
-20 -10 -7 3 -16 -1 -19 -9 -3 -7 -12 -11 -20 -8 -7 3 -16 -2 -20 -10 -3 -9
-11 -14 -19 -11 -7 3 -15 -2 -19 -11 -4 -11 -12 -14 -27 -10 -14 5 -25 2 -30
-6 -5 -8 -22 -12 -44 -11 -20 2 -35 -1 -35 -7 0 -6 -15 -11 -34 -11 -19 0 -38
-4 -41 -10 -8 -13 -342 -13 -350 0 -3 6 -30 10 -60 10 -30 0 -57 5 -60 10 -4
6 -15 8 -26 5 -12 -4 -21 -1 -25 9 -4 11 -14 14 -29 10 -15 -4 -24 0 -28 10
-4 9 -13 13 -20 10 -8 -3 -17 2 -20 10 -4 9 -13 13 -22 10 -8 -3 -15 -1 -15 5
0 6 -9 11 -20 11 -11 0 -20 5 -20 10 0 6 -9 10 -20 10 -11 0 -20 5 -20 10 0 6
-6 10 -13 10 -8 0 -22 9 -32 20 -10 11 -23 20 -29 20 -14 0 -256 242 -256 256
0 6 -9 19 -20 29 -11 10 -17 21 -15 25 3 4 -2 13 -10 20 -8 7 -13 16 -10 20 2
4 -4 15 -15 25 -11 10 -20 24 -20 32 0 7 -4 13 -10 13 -5 0 -10 14 -10 30 0
17 -4 30 -10 30 -5 0 -10 9 -10 20 0 11 -4 20 -10 20 -5 0 -10 13 -10 28 0 15
-6 40 -12 55 l-13 27 -632 0 -633 0 0 -435 0 -435 1645 0 c1090 0 1645 -3
1645 -10 0 -7 -555 -10 -1645 -10 l-1645 0 0 -220 0 -220 2265 0 2265 0 0
1530 0 1530 -2265 0 -2265 0 0 -855z m1450 495 c0 -7 -225 -10 -655 -10 -430
0 -655 3 -655 10 0 7 225 10 655 10 430 0 655 -3 655 -10z m1054 -50 c5 -5 34
-10 64 -10 l53 0 -28 -31 c-63 -69 -91 -91 -163 -128 -128 -66 -288 -110 -459
-127 -60 -6 -70 -9 -55 -18 36 -21 267 -11 393 18 195 44 341 131 341 204 0
16 -5 33 -12 40 -9 9 -9 15 0 24 9 9 13 7 18 -6 4 -11 13 -15 25 -11 19 6 59
-12 72 -32 4 -7 14 -10 21 -7 7 3 16 -2 19 -10 4 -9 13 -13 22 -10 8 3 15 1
15 -5 0 -6 9 -11 20 -11 11 0 20 -4 20 -10 0 -5 15 -10 33 -10 34 0 77 -32 59
-44 -6 -3 -13 1 -16 10 -4 11 -14 14 -34 9 -21 -4 -44 2 -86 25 -70 37 -88 38
-52 5 15 -14 31 -25 37 -25 5 0 9 -4 9 -10 0 -5 -4 -10 -10 -10 -5 0 -10 -7
-10 -16 0 -8 4 -13 9 -10 5 3 14 -1 21 -9 7 -8 16 -12 21 -9 5 3 9 0 9 -6 0
-6 -10 -9 -22 -8 -13 2 -24 -1 -25 -7 -1 -5 5 -9 13 -9 23 3 17 -9 -28 -53
-177 -169 -585 -305 -1045 -348 -162 -15 -39 -40 192 -39 270 2 592 64 781
150 29 13 60 24 68 24 9 0 16 5 16 10 0 6 7 10 15 10 20 0 19 -16 -2 -24 -15
-6 -15 -8 2 -20 17 -12 17 -13 0 -20 -13 -5 -15 -9 -6 -20 6 -7 8 -16 4 -19
-3 -4 -7 -24 -8 -45 -1 -20 -4 -44 -6 -52 -2 -8 3 -16 11 -16 8 -1 21 -2 29
-3 8 0 -4 -13 -25 -28 -21 -14 -58 -39 -81 -55 -134 -92 -473 -219 -768 -289
-92 -22 -336 -65 -410 -73 -27 -3 -90 -10 -140 -16 -49 -6 -166 -15 -260 -20
-93 -5 -181 -10 -195 -12 -17 -2 -25 2 -28 15 -3 16 9 17 152 17 149 0 156 1
156 20 0 11 -4 20 -10 20 -6 0 -10 38 -10 95 0 57 4 95 10 95 6 0 10 23 10 50
0 28 5 50 10 50 6 0 10 20 10 44 0 25 5 48 10 51 6 3 10 14 10 24 0 21 22 71
33 71 4 0 7 14 7 30 0 17 5 30 10 30 6 0 10 9 10 19 0 10 7 21 15 25 14 5 40
52 37 67 -1 4 8 15 18 24 11 10 20 24 20 32 0 7 18 29 40 49 22 20 40 42 40
48 0 15 54 68 61 61 3 -2 23 13 44 35 22 22 44 40 50 40 7 0 20 9 30 20 10 11
24 20 31 20 8 0 19 9 26 20 7 11 21 20 30 20 10 0 18 5 18 10 0 6 9 10 20 10
11 0 20 5 20 10 0 6 9 10 20 10 11 0 20 3 20 8 0 12 56 33 72 27 9 -4 18 1 22
11 5 12 14 15 35 11 19 -4 33 -1 41 8 7 9 22 12 39 9 16 -4 31 0 38 8 14 16
350 15 367 -2z m562 -280 c8 0 14 -7 14 -15 0 -8 -4 -15 -8 -15 -11 0 -102 91
-102 103 0 6 18 -9 41 -31 22 -23 47 -42 55 -42z m97 -48 c16 -17 15 -18 -22
-16 -48 2 -69 13 -50 25 23 14 55 10 72 -9z m241 -52 c150 0 176 -2 176 -15 0
-13 -23 -15 -147 -15 -114 0 -144 -3 -135 -12 7 -7 12 -18 12 -26 0 -8 -23 7
-51 32 -28 25 -55 46 -61 46 -5 0 -6 5 -2 12 5 8 11 6 19 -5 11 -15 36 -17
189 -17z m-74 -106 c0 -8 -4 -12 -10 -9 -5 3 -10 10 -10 16 0 5 5 9 10 9 6 0
10 -7 10 -16z m20 -69 c0 -14 -4 -25 -10 -25 -5 0 -10 11 -10 25 0 14 5 25 10
25 6 0 10 -11 10 -25z m20 -215 c0 -5 -2 -10 -4 -10 -3 0 -8 5 -11 10 -3 6 -1
10 4 10 6 0 11 -4 11 -10z m37 -16 c-3 -3 -12 -4 -19 -1 -8 3 -5 6 6 6 11 1
17 -2 13 -5z m99 -100 c-6 -16 -9 -14 -23 14 -9 18 -26 41 -39 51 -13 10 -20
21 -17 25 4 4 25 -11 46 -33 29 -29 38 -44 33 -57z m-4 -96 c-9 -9 -12 -7 -12
12 0 19 3 21 12 12 9 -9 9 -15 0 -24z m-17 -28 c3 -5 1 -10 -4 -10 -6 0 -11 5
-11 10 0 6 2 10 4 10 3 0 8 -4 11 -10z m-15 -38 c0 -9 -46 -52 -56 -52 -3 0 4
14 16 30 20 29 40 39 40 22z m-60 -107 c0 -25 -4 -45 -10 -45 -5 0 -10 -14
-10 -32 0 -22 10 -42 32 -65 43 -45 30 -52 -17 -9 -36 34 -37 36 -31 88 11 83
17 108 27 108 5 0 9 -20 9 -45z m-2365 -75 c-3 -5 -12 -10 -20 -10 -8 0 -17 5
-20 10 -4 6 5 10 20 10 15 0 24 -4 20 -10z m110 -20 c-3 -5 -22 -10 -41 -10
-19 0 -34 5 -34 10 0 6 18 10 41 10 24 0 38 -4 34 -10z m2315 -146 c0 -21 -5
-34 -13 -34 -9 0 -11 12 -9 40 5 48 22 43 22 -6z m-20 -52 c0 -5 -12 -19 -27
-33 l-26 -24 19 33 c17 30 34 42 34 24z m-122 -127 c-12 -14 -29 -25 -37 -25
-11 0 -6 8 14 25 39 32 51 32 23 0z m-91 -72 c-20 -20 -39 -34 -42 -31 -3 3
11 22 31 42 20 20 39 34 42 31 3 -3 -10 -22 -31 -42z"/>
<path d="M2765 2370 c-3 -5 -2 -10 4 -10 5 0 13 5 16 10 3 6 2 10 -4 10 -5 0
-13 -4 -16 -10z"/>
</g>
</svg>
